<svg width="164" height="38" viewBox="0 0 164 38" fill="none" xmlns="http://www.w3.org/2000/svg">
<g clip-path="url(#clip0_7_663)">
<path d="M46.2435 0H31.5111C30.5235 0 29.6307 0.436312 28.9849 1.13914C28.3351 1.84627 27.9341 2.81991 27.9341 3.89457H44.0076L24.4006 38H29.7256C32.6408 38 35.3487 36.3665 36.8952 33.6777L54.0136 3.89457L56.2494 0H46.2435Z" fill="#F15558"/>
<path d="M21.2661 2.14287C20.2726 0.788801 18.7656 0 17.1737 0H0L12.8323 17.4912C13.8258 18.8452 15.3328 19.634 16.9248 19.634H34.0984L21.2661 2.14287Z" fill="#F15558"/>
<path d="M79.5479 6.35126L74.8827 16.8657H74.7029L70.0377 6.35126H66.6069V7.36789L72.8977 21.0247L70.49 26.2325V27.247H73.7391L82.9491 7.36789V6.35126H79.5479Z" fill="#F15558"/>
<path d="M93.6346 6.35126H90.1129L83.8518 19.6813V20.698H87.4939L88.517 18.2413H95.2285L96.2812 20.698H99.9846V19.6813L93.6346 6.35126ZM89.8404 15.1613L91.7977 10.4457H91.9774L93.9052 15.1613H89.8404Z" fill="#F15558"/>
<path d="M115.424 6.35126V15.3913H115.244L106.275 6.35126H103.595V20.698H106.876V11.5268H107.057L116.115 20.698H118.705V6.35126H115.424Z" fill="#F15558"/>
<path d="M134.024 12.6724V17.5535C133.741 17.6846 133.372 17.8093 132.91 17.9296C132.447 18.05 131.956 18.1102 131.434 18.1102C130.753 18.1102 130.115 18.007 129.524 17.7985C128.932 17.5922 128.414 17.2977 127.974 16.9152C127.533 16.5326 127.186 16.0683 126.935 15.5224C126.684 14.9765 126.56 14.3553 126.56 13.6568C126.56 12.9583 126.69 12.3285 126.951 11.7718C127.211 11.2152 127.567 10.7466 128.019 10.364C128.47 9.9836 128.997 9.687 129.599 9.48066C130.202 9.27218 130.844 9.16901 131.525 9.16901C132.949 9.16901 134.575 9.65046 136.402 10.6091H137.334V7.10566C136.05 6.62636 134.952 6.32976 134.037 6.22014C133.125 6.11268 132.287 6.05679 131.525 6.05679C130.381 6.05679 129.293 6.24378 128.26 6.61347C127.225 6.9853 126.313 7.50329 125.521 8.16958C124.729 8.83587 124.097 9.63326 123.625 10.5618C123.153 11.4881 122.917 12.5198 122.917 13.6568C122.917 14.7938 123.149 15.8233 123.611 16.7518C124.071 17.6782 124.693 18.4756 125.475 19.1419C126.257 19.8082 127.162 20.3218 128.185 20.6808C129.208 21.0419 130.291 21.2224 131.434 21.2224C131.936 21.2224 132.408 21.1988 132.85 21.1558C133.291 21.1128 133.682 21.0569 134.024 20.9924V23.318H137.454V12.6724H134.024Z" fill="#F15558"/>
<path d="M152.442 15.2602V15.0646C153.244 14.6928 153.927 14.1683 154.488 13.4913C155.051 12.8164 155.331 11.9524 155.331 10.9057C155.331 9.59458 154.855 8.50918 153.901 7.64515C152.949 6.78327 151.588 6.35126 149.825 6.35126H142.27V20.698H145.701V15.8169H147.085C147.486 15.8169 147.832 15.877 148.124 15.9974C148.414 16.1178 148.681 16.2876 148.92 16.5047L153.737 20.698H157.559V19.6813L152.442 15.2602ZM151.164 12.3285C150.812 12.6466 150.425 12.8035 150.004 12.8035H145.701V9.36461H150.004C150.486 9.36461 150.887 9.51291 151.209 9.80737C151.529 10.1018 151.689 10.5231 151.689 11.069C151.689 11.6149 151.513 12.0126 151.164 12.3285Z" fill="#F15558"/>
<path d="M160.569 6.35126V20.698H164V6.35126H160.569Z" fill="#F15558"/>
<path d="M134.018 27.0385V28.371H137.058V34.9716H138.772V28.371H141.806V27.0385H134.02H134.018Z" fill="#F15558"/>
<path d="M149.236 31.8379C149.544 31.6187 149.793 31.3457 149.981 31.0126C150.172 30.6837 150.265 30.2818 150.265 29.8111C150.265 29.1813 150.121 28.6634 149.834 28.2528C149.55 27.8423 149.112 27.5371 148.529 27.3394C147.944 27.1373 147.204 27.0363 146.309 27.0363H143.388V34.9695H145.092V32.7535H146.763L148.217 34.9695H150.073L148.246 32.3559C148.596 32.2248 148.926 32.0507 149.234 31.8357L149.236 31.8379ZM147.996 31.0577C147.638 31.3285 147.065 31.4618 146.273 31.4618H145.094V28.3431H146.196C146.992 28.3431 147.581 28.457 147.962 28.6891C148.343 28.9191 148.535 29.3124 148.535 29.8627C148.535 30.4129 148.357 30.7869 148 31.0555L147.996 31.0577Z" fill="#F15558"/>
<path d="M152.683 27.0385V34.9716H154.387V27.0385H152.683Z" fill="#F15558"/>
<path d="M163.078 27.7972C162.462 27.2921 161.484 27.0385 160.141 27.0385H157.121V34.9716H158.827V33.005H159.935C160.692 33.005 161.33 32.9212 161.849 32.7557C162.367 32.5902 162.787 32.3666 163.103 32.0786C163.421 31.7928 163.651 31.4661 163.791 31.0942C163.929 30.7203 164 30.3269 164 29.9186C164 29.0072 163.692 28.3001 163.078 27.7972ZM161.976 30.9739C161.78 31.2253 161.496 31.4102 161.122 31.5262C160.747 31.6402 160.293 31.7003 159.756 31.7003H158.827V28.3388H160.028C160.795 28.3388 161.361 28.4764 161.721 28.745C162.084 29.0158 162.264 29.4242 162.264 29.9809C162.264 30.3914 162.167 30.7246 161.974 30.976L161.976 30.9739Z" fill="#F15558"/>
</g>
<defs>
<clipPath id="clip0_7_663">
<rect width="164" height="38" fill="white"/>
</clipPath>
</defs>
</svg>
